# xmcd CD database file
#
# Track frame offsets:
#	150
#	7105
#	18987
#	36120
#	54182
#	83967
#	118110
#	133512
#	149452
#	183662
#	192012
#	207387
#	216090
#	228065
#	254957
#	269745
#	280902
#	302297
#	321850
#	337197
#
# Disc length: 4647 seconds
#
# Revision: 0
# Processed by: cddbd v1.4PL0 Copyright (c) Steve Scherf et al.
# Submitted via: Feurio! 1.65 - http://www.feurio.com
#
DISCID=30122514
DTITLE=Gram Parsons and The Fallen Angels - Yours Truly, Anonymous
DYEAR=1900
DGENRE=
TTITLE0=Buckaroo
TTITLE1=Still Feeling Blue
TTITLE2=That's All It Took
TTITLE3=California Cottonfields
TTITLE4=Cry One More Time
TTITLE5=A Song For You
TTITLE6=If You Don't Love Him
TTITLE7=Hang On Sloopy
TTITLE8=Medley: Baby, What You Want Me To Do?/Bony Maronie/ Forty Days/ Almost 
TTITLE8=Grown
TTITLE9=Gram Parsons and Flying Burrito Brothers - If You Gotta Go, Go Now
TTITLE10=Gram Parsons and Flying Burrito Brothers - Do Right Woman
TTITLE11=Gram Parsons and Flying Burrito Brothers - You're Still On My Mind
TTITLE12=Gram Parsons and Flying Burrito Brothers - Lazy Day
TTITLE13=Gram Parsons and Flying Burrito Brothers - Honky Tonk Woman/Close Up 
TTITLE13=The Honky Tonk
TTITLE14=Sing Me Back Home
TTITLE15=Gram Parsons w. Freddy Neil - You Don't Miss Your Water
TTITLE16=Gram Parsons w. The Byrds - You Don't Miss Your Water
TTITLE17=Gram Parsons w. The Byrds - Hickory Wind
TTITLE18=Gram Parsons w. The Byrds - The Christian Life
TTITLE19=Gram Parsons w. E. Harris, Neil Young and Linda Ronstadt - Close Up The 
TTITLE19=Honky Tonks
EXTD=
EXTT0=
EXTT1=
EXTT2=Live at Max's Kansas City, N.Y. March 9, 1973
EXTT3=Live at Max's Kansas City, N.Y. March 9, 1973
EXTT4=Live at Max's Kansas City, N.Y. March 9, 1973
EXTT5=Live at Max's Kansas City, N.Y. March 9, 1973
EXTT6=w. Emmylou Harris
EXTT7=Live at Max's Kansas City, N.Y. March 9, 1973
EXTT8=Live at Max's Kansas City, N.Y. March 9, 1973
EXTT9=At The Troubadour, L.A. 1970
EXTT10=At The Troubadour, L.A. 1970
EXTT11=At The Troubadour, L.A. 1970
EXTT12=At The Troubadour, L.A. 1970
EXTT13=At The Troubadour, L.A. 1970
EXTT14=
EXTT15=
EXTT16=Piper Club, Rome, 1968
EXTT17=Piper Club, Rome, 1968
EXTT18=Piper Club, Rome, 1968
EXTT19=Live in Austin, Texas, at Armadilllo Headquarters
PLAYORDER=
